<?xml version="1.0" encoding="utf-8"?>
<!-- Generator: Adobe Illustrator 16.0.0, SVG Export Plug-In . SVG Version: 6.00 Build 0)  -->
<!DOCTYPE svg PUBLIC "-//W3C//DTD SVG 1.1//EN" "http://www.w3.org/Graphics/SVG/1.1/DTD/svg11.dtd">
<svg version="1.1" id="图层_1" xmlns="http://www.w3.org/2000/svg" xmlns:xlink="http://www.w3.org/1999/xlink" x="0px" y="0px"
	 width="100px" height="100px" viewBox="0 0 100 100" enable-background="new 0 0 100 100" xml:space="preserve">
<circle fill="#AED15A" cx="50" cy="50" r="49.5"/>
<line fill="none" x1="63.639" y1="17" x2="21.167" y2="35.5"/>
<line fill="none" x1="79.667" y1="28.667" x2="22.833" y2="54.333"/>
<line fill="none" x1="75.834" y1="45.467" x2="32" y2="69.667"/>
<line fill="none" x1="51.25" y1="50" x2="51.25" y2="26.25"/>
<line fill="none" x1="51.25" y1="50" x2="51.25" y2="69.667"/>
<line fill="none" x1="51.25" y1="50" x2="51.25" y2="28.667"/>
<rect x="140.5" y="6" width="0.167" height="0.333"/>
<g>
	<rect x="31.363" y="34.53" width="37.273" height="1.273"/>
	<ellipse cx="74.834" cy="35.167" rx="6.197" ry="6.5"/>
	<ellipse cx="25.166" cy="35.167" rx="6.197" ry="6.5"/>
	<path d="M48.086,41.364c-3.59,0-6.5-2.773-6.5-6.197s2.91-6.197,6.5-6.197"/>
	<rect x="47.083" y="41.667" width="5.833" height="29.667"/>
	<rect x="45.083" y="38.226" transform="matrix(0.5 0.866 -0.866 0.5 58.2405 -23.1479)" width="8.166" height="1.274"/>
</g>
</svg>
